<mxfile host="app.diagrams.net" modified="2023-06-06T10:12:29.529Z" agent="Mozilla/5.0 (Windows NT 10.0; Win64; x64) AppleWebKit/537.36 (KHTML, like Gecko) Chrome/113.0.0.0 Safari/537.36 Edg/113.0.1774.50" etag="GhMURmeTYK1acjfTXRyN" version="21.3.6" type="github">
  <diagram name="Page-1" id="2EuWQ_cyeNvUF4iVqzXP">
    <mxGraphModel dx="1293" dy="548" grid="1" gridSize="10" guides="1" tooltips="1" connect="1" arrows="1" fold="1" page="1" pageScale="1" pageWidth="850" pageHeight="1100" math="0" shadow="0">
      <root>
        <mxCell id="0" />
        <mxCell id="1" parent="0" />
        <mxCell id="NVrWkherxhvp98MJz5RF-6" value="Information needed for OS/APP deployment has already been captured in the form&amp;nbsp;" style="shape=step;perimeter=stepPerimeter;whiteSpace=wrap;html=1;fixedSize=1;" vertex="1" parent="1">
          <mxGeometry x="30" y="150" width="310" height="150" as="geometry" />
        </mxCell>
        <mxCell id="NVrWkherxhvp98MJz5RF-7" value="Servers are racked and idrac is connected . Dc will provide the drac IP&lt;br&gt;&amp;amp; credentials&amp;nbsp;" style="shape=step;perimeter=stepPerimeter;whiteSpace=wrap;html=1;fixedSize=1;" vertex="1" parent="1">
          <mxGeometry x="340" y="150" width="300" height="150" as="geometry" />
        </mxCell>
        <mxCell id="NVrWkherxhvp98MJz5RF-8" value="Now DMs required to fill the ip and the password credentials and installation&amp;nbsp; can be initiated using cloud2 API or&amp;nbsp;&amp;nbsp;" style="shape=step;perimeter=stepPerimeter;whiteSpace=wrap;html=1;fixedSize=1;" vertex="1" parent="1">
          <mxGeometry x="640" y="150" width="300" height="150" as="geometry" />
        </mxCell>
        <mxCell id="NVrWkherxhvp98MJz5RF-9" value="High level steps" style="text;html=1;align=center;verticalAlign=middle;resizable=0;points=[];autosize=1;strokeColor=none;fillColor=none;" vertex="1" parent="1">
          <mxGeometry x="56" y="98" width="110" height="30" as="geometry" />
        </mxCell>
        <mxCell id="NVrWkherxhvp98MJz5RF-10" value="Service now form&amp;nbsp;" style="swimlane;fontStyle=0;childLayout=stackLayout;horizontal=1;startSize=30;horizontalStack=0;resizeParent=1;resizeParentMax=0;resizeLast=0;collapsible=1;marginBottom=0;whiteSpace=wrap;html=1;" vertex="1" parent="1">
          <mxGeometry x="80" y="370" width="120" height="120" as="geometry" />
        </mxCell>
        <mxCell id="NVrWkherxhvp98MJz5RF-11" value="SPI&amp;nbsp;" style="text;strokeColor=none;fillColor=none;align=left;verticalAlign=middle;spacingLeft=4;spacingRight=4;overflow=hidden;points=[[0,0.5],[1,0.5]];portConstraint=eastwest;rotatable=0;whiteSpace=wrap;html=1;" vertex="1" parent="NVrWkherxhvp98MJz5RF-10">
          <mxGeometry y="30" width="120" height="30" as="geometry" />
        </mxCell>
        <mxCell id="NVrWkherxhvp98MJz5RF-12" value="OS" style="text;strokeColor=none;fillColor=none;align=left;verticalAlign=middle;spacingLeft=4;spacingRight=4;overflow=hidden;points=[[0,0.5],[1,0.5]];portConstraint=eastwest;rotatable=0;whiteSpace=wrap;html=1;" vertex="1" parent="NVrWkherxhvp98MJz5RF-10">
          <mxGeometry y="60" width="120" height="30" as="geometry" />
        </mxCell>
        <mxCell id="NVrWkherxhvp98MJz5RF-13" value="Enclave/Microsegments" style="text;strokeColor=none;fillColor=none;align=left;verticalAlign=middle;spacingLeft=4;spacingRight=4;overflow=hidden;points=[[0,0.5],[1,0.5]];portConstraint=eastwest;rotatable=0;whiteSpace=wrap;html=1;" vertex="1" parent="NVrWkherxhvp98MJz5RF-10">
          <mxGeometry y="90" width="120" height="30" as="geometry" />
        </mxCell>
        <mxCell id="NVrWkherxhvp98MJz5RF-15" value="" style="sketch=0;pointerEvents=1;shadow=0;dashed=0;html=1;strokeColor=none;fillColor=#505050;labelPosition=center;verticalLabelPosition=bottom;verticalAlign=top;outlineConnect=0;align=center;shape=mxgraph.office.servers.datacenter;" vertex="1" parent="1">
          <mxGeometry x="287" y="460" width="53" height="53" as="geometry" />
        </mxCell>
      </root>
    </mxGraphModel>
  </diagram>
</mxfile>
